<svg width="18" height="16" viewBox="0 0 18 16" fill="none" xmlns="http://www.w3.org/2000/svg">
<path d="M3.92857 13.0421V14.4707H0V13.0421H3.92857ZM7.85714 11.6136C8.24777 11.6136 8.57143 11.9372 8.57143 12.3278V15.185C8.57143 15.5756 8.24777 15.8993 7.85714 15.8993H5C4.60938 15.8993 4.28571 15.5756 4.28571 15.185V12.3278C4.28571 11.9372 4.60938 11.6136 5 11.6136H7.85714ZM9.64286 7.32785V8.75642H0V7.32785H9.64286ZM2.5 1.61356V3.04213H0V1.61356H2.5ZM17.1429 13.0421V14.4707H8.92857V13.0421H17.1429ZM6.42857 0.184988C6.8192 0.184988 7.14286 0.508649 7.14286 0.899274V3.75642C7.14286 4.14704 6.8192 4.4707 6.42857 4.4707H3.57143C3.1808 4.4707 2.85714 4.14704 2.85714 3.75642V0.899274C2.85714 0.508649 3.1808 0.184988 3.57143 0.184988H6.42857ZM13.5714 5.89927C13.9621 5.89927 14.2857 6.22293 14.2857 6.61356V9.4707C14.2857 9.86133 13.9621 10.185 13.5714 10.185H10.7143C10.3237 10.185 10 9.86133 10 9.4707V6.61356C10 6.22293 10.3237 5.89927 10.7143 5.89927H13.5714ZM17.1429 7.32785V8.75642H14.6429V7.32785H17.1429ZM17.1429 1.61356V3.04213H7.5V1.61356H17.1429Z" fill="#FF5A3C"/>
</svg>
