<svg width="13" height="17" viewBox="0 0 13 17" fill="none" xmlns="http://www.w3.org/2000/svg">
<rect width="13" height="17" fill="#1E1E1E"/>
<g id="01-Home-Page-01" clip-path="url(#clip0_0_1)">
<g id="Clip path group">
<mask id="mask0_0_1" style="mask-type:luminance" maskUnits="userSpaceOnUse" x="-375" y="-16" width="1920" height="9651">
<g id="clip-home-1_new">
<path id="Vector" d="M1545 -16H-375V9635H1545V-16Z" fill="white"/>
</g>
</mask>
<g mask="url(#mask0_0_1)">
<g id="home-1_new">
<path id="Vector_2" d="M1545 -16H-375V9635H1545V-16Z" fill="white"/>
<g id="Group 15189">
<g id="Header">
<g id="header">
<g id="navbar">
<g id="top_Header">
<g id="phone  +1 800 833 9780">
<path d="M8.59277 17.835C8.59277 18.6006 8.46289 19.2773 8.20312 19.8652C7.94336 20.4531 7.5765 20.9089 7.10254 21.2324C6.62858 21.556 6.09538 21.7178 5.50293 21.7178C4.68262 21.7178 4.06055 21.4193 3.63672 20.8223H3.60938V24.7666H0.697266V14.5469H3.60938V15.4971H3.63672C3.86914 15.1462 4.16992 14.8727 4.53906 14.6768C4.9082 14.4762 5.32747 14.376 5.79688 14.376C6.69922 14.376 7.38965 14.6768 7.86816 15.2783C8.35124 15.8799 8.59277 16.7321 8.59277 17.835ZM5.63965 17.9238C5.63965 17.4818 5.55306 17.1354 5.37988 16.8848C5.21126 16.6341 4.94922 16.5088 4.59375 16.5088C4.28385 16.5088 4.0332 16.641 3.8418 16.9053C3.65039 17.1696 3.55469 17.5319 3.55469 17.9922V18.1289C3.55469 18.571 3.63672 18.9242 3.80078 19.1885C3.96484 19.4528 4.21094 19.585 4.53906 19.585C4.88997 19.585 5.16113 19.4414 5.35254 19.1543C5.54395 18.8626 5.63965 18.4525 5.63965 17.9238ZM14.2051 21.5469V17.5547C14.2051 16.8574 13.9385 16.5088 13.4053 16.5088C13.1455 16.5088 12.9473 16.609 12.8105 16.8096C12.6738 17.0055 12.6055 17.2585 12.6055 17.5684V21.5469H9.69336V11.1836H12.6055V15.4971H12.6328C12.8835 15.137 13.1865 14.8613 13.542 14.6699C13.902 14.474 14.2871 14.376 14.6973 14.376C15.4538 14.376 16.0303 14.6198 16.4268 15.1074C16.8232 15.5905 17.0215 16.3037 17.0215 17.2471V21.5469H14.2051ZM26.1201 17.9238C26.1201 19.1042 25.7624 20.0316 25.0469 20.7061C24.3359 21.3805 23.3402 21.7178 22.0596 21.7178C20.7881 21.7178 19.7969 21.3896 19.0859 20.7334C18.3796 20.0726 18.0264 19.1634 18.0264 18.0059C18.0264 17.263 18.1927 16.6182 18.5254 16.0713C18.8581 15.5244 19.332 15.1051 19.9473 14.8135C20.5625 14.5218 21.2712 14.376 22.0732 14.376C22.9027 14.376 23.6204 14.5286 24.2266 14.834C24.8372 15.1393 25.3044 15.5632 25.6279 16.1055C25.9561 16.6478 26.1201 17.2539 26.1201 17.9238ZM23.167 17.9375C23.167 16.985 22.8024 16.5088 22.0732 16.5088C21.3441 16.5088 20.9795 17.0078 20.9795 18.0059C20.9795 19.0586 21.3486 19.585 22.0869 19.585C22.807 19.585 23.167 19.0358 23.167 17.9375ZM31.7461 21.5469V17.7256C31.7461 17.2926 31.68 16.9827 31.5479 16.7959C31.4202 16.6045 31.2106 16.5088 30.9189 16.5088C30.6683 16.5088 30.4723 16.6068 30.3311 16.8027C30.1898 16.9987 30.1191 17.2493 30.1191 17.5547V21.5469H27.207V14.5469H30.1191V15.6406H30.1465C30.3789 15.2396 30.6911 14.9297 31.083 14.7109C31.4749 14.4876 31.901 14.376 32.3613 14.376C33.8926 14.376 34.6582 15.3421 34.6582 17.2744V21.5469H31.7461ZM38.4795 18.874C38.5296 19.1748 38.7028 19.4118 38.999 19.585C39.2952 19.7536 39.6872 19.8379 40.1748 19.8379C40.8538 19.8379 41.4964 19.708 42.1025 19.4482V21.2939C41.3962 21.5765 40.5394 21.7178 39.5322 21.7178C38.3109 21.7178 37.3607 21.4056 36.6816 20.7812C36.0026 20.1569 35.6631 19.2979 35.6631 18.2041C35.6631 17.4521 35.8112 16.7891 36.1074 16.2148C36.4082 15.6406 36.8503 15.1917 37.4336 14.8682C38.0215 14.54 38.6686 14.376 39.375 14.376C40.0996 14.376 40.7194 14.5173 41.2344 14.7998C41.7493 15.0824 42.139 15.4788 42.4033 15.9893C42.6722 16.4997 42.8066 17.0967 42.8066 17.7803V18.874H38.4795ZM40.2295 17.3496C40.2295 16.543 39.9401 16.1396 39.3613 16.1396C39.1198 16.1396 38.917 16.2513 38.7529 16.4746C38.5889 16.6934 38.4932 16.985 38.4658 17.3496H40.2295Z" fill="#FF5A3C"/>
<path d="M49.3906 18.2144V20.9463H47.5742V18.2144H44.8643V16.4053H47.5742V13.688H49.3906V16.4053H52.1226V18.2144H49.3906ZM56.7368 21.5469V13.9883C56.395 14.1885 56.041 14.3423 55.6748 14.4497C55.3086 14.5522 54.8936 14.6279 54.4297 14.6768V12.333C55.0889 12.2207 55.7017 12.0449 56.2681 11.8057C56.8394 11.5615 57.4229 11.2295 58.0186 10.8096H59.8569V21.5469H56.7368ZM65.7603 18.6904C65.7603 18.0459 65.9238 17.5039 66.251 17.0645C66.5781 16.625 67.0591 16.2661 67.6938 15.9878C67.1616 15.7192 66.7612 15.375 66.4927 14.9551C66.2241 14.5352 66.0898 14.0737 66.0898 13.5708C66.0898 13.0728 66.2485 12.6162 66.5659 12.2012C66.8882 11.7812 67.3325 11.4541 67.8989 11.2197C68.4702 10.9854 69.1001 10.8682 69.7886 10.8682C70.5063 10.8682 71.1509 10.9854 71.7222 11.2197C72.2935 11.4492 72.7354 11.7715 73.0479 12.1865C73.3604 12.6016 73.5166 13.0654 73.5166 13.5781C73.5166 14.0713 73.3726 14.5327 73.0845 14.9624C72.7964 15.3921 72.3765 15.7388 71.8247 16.0024C72.5083 16.3003 73.0015 16.6714 73.3042 17.1157C73.6069 17.5552 73.7583 18.0728 73.7583 18.6685C73.7583 19.2544 73.5874 19.7817 73.2456 20.2505C72.9087 20.7192 72.4326 21.0806 71.8174 21.3345C71.207 21.5884 70.521 21.7153 69.7593 21.7153C68.5776 21.7153 67.6157 21.4321 66.8735 20.8657C66.1313 20.2993 65.7603 19.5742 65.7603 18.6904ZM68.5947 18.4341C68.5947 18.8101 68.7021 19.1055 68.917 19.3203C69.1318 19.5352 69.415 19.6426 69.7666 19.6426C70.123 19.6426 70.4087 19.5278 70.6235 19.2983C70.8384 19.0688 70.9458 18.7808 70.9458 18.4341C70.9458 18.0825 70.8335 17.792 70.6089 17.5625C70.3843 17.3281 70.1035 17.2109 69.7666 17.2109C69.4346 17.2109 69.1562 17.3257 68.9316 17.5552C68.707 17.7798 68.5947 18.0728 68.5947 18.4341ZM68.8584 13.9297C68.8584 14.2178 68.9487 14.4717 69.1294 14.6914C69.3149 14.9111 69.542 15.021 69.8105 15.021C70.084 15.021 70.311 14.9111 70.4917 14.6914C70.6772 14.4717 70.77 14.2178 70.77 13.9297C70.77 13.6172 70.6772 13.356 70.4917 13.146C70.3062 12.936 70.0791 12.8311 69.8105 12.8311C69.5371 12.8311 69.3101 12.936 69.1294 13.146C68.9487 13.356 68.8584 13.6172 68.8584 13.9297ZM82.7817 16.2075C82.7817 18.0093 82.4375 19.3813 81.749 20.3237C81.0654 21.2612 80.0645 21.73 78.7461 21.73C77.3984 21.73 76.3901 21.2979 75.7212 20.4336C75.0571 19.5693 74.7251 18.2314 74.7251 16.4199C74.7251 14.6035 75.084 13.2241 75.8018 12.2817C76.5244 11.3394 77.5669 10.8682 78.9292 10.8682C81.4976 10.8682 82.7817 12.6479 82.7817 16.2075ZM79.7056 16.2075C79.7056 15.1626 79.6323 14.3911 79.4858 13.8931C79.3394 13.395 79.1025 13.146 78.7754 13.146C78.1357 13.146 77.8159 14.2153 77.8159 16.354C77.8159 17.4038 77.8892 18.1826 78.0356 18.6904C78.187 19.1934 78.4238 19.4448 78.7461 19.4448C79.3857 19.4448 79.7056 18.3657 79.7056 16.2075ZM91.7759 16.2075C91.7759 18.0093 91.4316 19.3813 90.7432 20.3237C90.0596 21.2612 89.0586 21.73 87.7402 21.73C86.3926 21.73 85.3843 21.2979 84.7153 20.4336C84.0513 19.5693 83.7192 18.2314 83.7192 16.4199C83.7192 14.6035 84.0781 13.2241 84.7959 12.2817C85.5186 11.3394 86.561 10.8682 87.9233 10.8682C90.4917 10.8682 91.7759 12.6479 91.7759 16.2075ZM88.6997 16.2075C88.6997 15.1626 88.6265 14.3911 88.48 13.8931C88.3335 13.395 88.0967 13.146 87.7695 13.146C87.1299 13.146 86.8101 14.2153 86.8101 16.354C86.8101 17.4038 86.8833 18.1826 87.0298 18.6904C87.1812 19.1934 87.418 19.4448 87.7402 19.4448C88.3799 19.4448 88.6997 18.3657 88.6997 16.2075ZM96.9175 18.6904C96.9175 18.0459 97.0811 17.5039 97.4082 17.0645C97.7354 16.625 98.2163 16.2661 98.8511 15.9878C98.3188 15.7192 97.9185 15.375 97.6499 14.9551C97.3813 14.5352 97.2471 14.0737 97.2471 13.5708C97.2471 13.0728 97.4058 12.6162 97.7231 12.2012C98.0454 11.7812 98.4897 11.4541 99.0562 11.2197C99.6274 10.9854 100.257 10.8682 100.946 10.8682C101.664 10.8682 102.308 10.9854 102.879 11.2197C103.451 11.4492 103.893 11.7715 104.205 12.1865C104.518 12.6016 104.674 13.0654 104.674 13.5781C104.674 14.0713 104.53 14.5327 104.242 14.9624C103.954 15.3921 103.534 15.7388 102.982 16.0024C103.666 16.3003 104.159 16.6714 104.461 17.1157C104.764 17.5552 104.916 18.0728 104.916 18.6685C104.916 19.2544 104.745 19.7817 104.403 20.2505C104.066 20.7192 103.59 21.0806 102.975 21.3345C102.364 21.5884 101.678 21.7153 100.917 21.7153C99.7349 21.7153 98.7729 21.4321 98.0308 20.8657C97.2886 20.2993 96.9175 19.5742 96.9175 18.6904ZM99.752 18.4341C99.752 18.8101 99.8594 19.1055 100.074 19.3203C100.289 19.5352 100.572 19.6426 100.924 19.6426C101.28 19.6426 101.566 19.5278 101.781 19.2983C101.996 19.0688 102.103 18.7808 102.103 18.4341C102.103 18.0825 101.991 17.792 101.766 17.5625C101.542 17.3281 101.261 17.2109 100.924 17.2109C100.592 17.2109 100.313 17.3257 100.089 17.5552C99.8643 17.7798 99.752 18.0728 99.752 18.4341ZM100.016 13.9297C100.016 14.2178 100.106 14.4717 100.287 14.6914C100.472 14.9111 100.699 15.021 100.968 15.021C101.241 15.021 101.468 14.9111 101.649 14.6914C101.834 14.4717 101.927 14.2178 101.927 13.9297C101.927 13.6172 101.834 13.356 101.649 13.146C101.463 12.936 101.236 12.8311 100.968 12.8311C100.694 12.8311 100.467 12.936 100.287 13.146C100.106 13.356 100.016 13.6172 100.016 13.9297ZM113.331 18.5439C113.331 19.5547 112.965 20.3384 112.232 20.895C111.5 21.4517 110.453 21.73 109.09 21.73C108.583 21.73 108.08 21.686 107.582 21.5981C107.083 21.5151 106.656 21.4028 106.3 21.2612V18.8149C106.627 19.0103 107 19.1641 107.42 19.2764C107.84 19.3887 108.265 19.4448 108.695 19.4448C109.193 19.4448 109.574 19.3569 109.837 19.1812C110.106 19.0005 110.24 18.7441 110.24 18.4121C110.24 18.0752 110.077 17.8115 109.75 17.6211C109.422 17.4307 108.966 17.3354 108.38 17.3354H107.369V15.0356H108.263C108.854 15.0356 109.288 14.9453 109.566 14.7646C109.85 14.5791 109.991 14.3398 109.991 14.0469C109.991 13.7686 109.884 13.5488 109.669 13.3877C109.459 13.2266 109.134 13.146 108.695 13.146C108.016 13.146 107.337 13.3413 106.659 13.7319V11.3955C107.508 11.0439 108.402 10.8682 109.339 10.8682C110.501 10.8682 111.412 11.105 112.071 11.5786C112.73 12.0522 113.06 12.709 113.06 13.5488C113.06 14.2031 112.882 14.7524 112.525 15.1968C112.174 15.6411 111.678 15.9316 111.039 16.0684V16.105C111.747 16.2026 112.306 16.4736 112.716 16.918C113.126 17.3574 113.331 17.8994 113.331 18.5439ZM122.325 18.5439C122.325 19.5547 121.959 20.3384 121.227 20.895C120.494 21.4517 119.447 21.73 118.084 21.73C117.577 21.73 117.074 21.686 116.576 21.5981C116.078 21.5151 115.65 21.4028 115.294 21.2612V18.8149C115.621 19.0103 115.995 19.1641 116.415 19.2764C116.834 19.3887 117.259 19.4448 117.689 19.4448C118.187 19.4448 118.568 19.3569 118.832 19.1812C119.1 19.0005 119.234 18.7441 119.234 18.4121C119.234 18.0752 119.071 17.8115 118.744 17.6211C118.417 17.4307 117.96 17.3354 117.374 17.3354H116.363V15.0356H117.257C117.848 15.0356 118.282 14.9453 118.561 14.7646C118.844 14.5791 118.985 14.3398 118.985 14.0469C118.985 13.7686 118.878 13.5488 118.663 13.3877C118.453 13.2266 118.128 13.146 117.689 13.146C117.01 13.146 116.332 13.3413 115.653 13.7319V11.3955C116.502 11.0439 117.396 10.8682 118.333 10.8682C119.496 10.8682 120.406 11.105 121.065 11.5786C121.725 12.0522 122.054 12.709 122.054 13.5488C122.054 14.2031 121.876 14.7524 121.52 15.1968C121.168 15.6411 120.672 15.9316 120.033 16.0684V16.105C120.741 16.2026 121.3 16.4736 121.71 16.918C122.12 17.3574 122.325 17.8994 122.325 18.5439ZM135.941 15.8633C135.941 17.6992 135.514 19.1372 134.659 20.1772C133.805 21.2124 132.625 21.73 131.122 21.73C130.199 21.73 129.396 21.5933 128.712 21.3198V18.9102C128.917 19.0566 129.217 19.1836 129.613 19.291C130.013 19.3936 130.372 19.4448 130.689 19.4448C131.422 19.4448 131.981 19.2422 132.367 18.8369C132.757 18.4316 132.958 17.8359 132.967 17.0498H132.923C132.464 17.6357 131.795 17.9287 130.917 17.9287C130.394 17.9287 129.913 17.7944 129.474 17.5259C129.039 17.2524 128.697 16.874 128.448 16.3906C128.204 15.9023 128.082 15.3457 128.082 14.7207C128.082 13.9492 128.243 13.2705 128.565 12.6846C128.893 12.0986 129.352 11.6494 129.942 11.3369C130.538 11.0244 131.222 10.8682 131.993 10.8682C132.794 10.8682 133.5 11.0757 134.11 11.4907C134.72 11.9058 135.177 12.4819 135.479 13.2192C135.787 13.9565 135.941 14.8379 135.941 15.8633ZM132.85 14.4937C132.85 14.1372 132.77 13.8345 132.608 13.5854C132.447 13.3315 132.232 13.2046 131.964 13.2046C131.7 13.2046 131.48 13.312 131.305 13.5269C131.134 13.7368 131.048 14.064 131.048 14.5083C131.048 14.9233 131.134 15.2383 131.305 15.4531C131.476 15.668 131.69 15.7754 131.949 15.7754C132.242 15.7754 132.464 15.6582 132.616 15.4238C132.772 15.1846 132.85 14.8745 132.85 14.4937ZM138.578 21.5469C138.724 20.585 138.932 19.689 139.2 18.8589C139.469 18.0288 139.789 17.228 140.16 16.4565C140.536 15.6851 141.104 14.6914 141.866 13.4756H137.296V11.0439H144.979V12.8896C144.281 14.1348 143.751 15.1748 143.39 16.0098C143.033 16.8447 142.723 17.7139 142.459 18.6172C142.201 19.5156 141.988 20.4922 141.822 21.5469H138.578ZM146.063 18.6904C146.063 18.0459 146.227 17.5039 146.554 17.0645C146.881 16.625 147.362 16.2661 147.997 15.9878C147.464 15.7192 147.064 15.375 146.795 14.9551C146.527 14.5352 146.393 14.0737 146.393 13.5708C146.393 13.0728 146.551 12.6162 146.869 12.2012C147.191 11.7812 147.635 11.4541 148.202 11.2197C148.773 10.9854 149.403 10.8682 150.091 10.8682C150.809 10.8682 151.454 10.9854 152.025 11.2197C152.596 11.4492 153.038 11.7715 153.351 12.1865C153.663 12.6016 153.819 13.0654 153.819 13.5781C153.819 14.0713 153.675 14.5327 153.387 14.9624C153.099 15.3921 152.679 15.7388 152.127 16.0024C152.811 16.3003 153.304 16.6714 153.607 17.1157C153.91 17.5552 154.061 18.0728 154.061 18.6685C154.061 19.2544 153.89 19.7817 153.548 20.2505C153.211 20.7192 152.735 21.0806 152.12 21.3345C151.51 21.5884 150.824 21.7153 150.062 21.7153C148.88 21.7153 147.918 21.4321 147.176 20.8657C146.434 20.2993 146.063 19.5742 146.063 18.6904ZM148.897 18.4341C148.897 18.8101 149.005 19.1055 149.22 19.3203C149.435 19.5352 149.718 19.6426 150.069 19.6426C150.426 19.6426 150.711 19.5278 150.926 19.2983C151.141 19.0688 151.249 18.7808 151.249 18.4341C151.249 18.0825 151.136 17.792 150.912 17.5625C150.687 17.3281 150.406 17.2109 150.069 17.2109C149.737 17.2109 149.459 17.3257 149.234 17.5552C149.01 17.7798 148.897 18.0728 148.897 18.4341ZM149.161 13.9297C149.161 14.2178 149.251 14.4717 149.432 14.6914C149.618 14.9111 149.845 15.021 150.113 15.021C150.387 15.021 150.614 14.9111 150.794 14.6914C150.98 14.4717 151.073 14.2178 151.073 13.9297C151.073 13.6172 150.98 13.356 150.794 13.146C150.609 12.936 150.382 12.8311 150.113 12.8311C149.84 12.8311 149.613 12.936 149.432 13.146C149.251 13.356 149.161 13.6172 149.161 13.9297ZM163.084 16.2075C163.084 18.0093 162.74 19.3813 162.052 20.3237C161.368 21.2612 160.367 21.73 159.049 21.73C157.701 21.73 156.693 21.2979 156.024 20.4336C155.36 19.5693 155.028 18.2314 155.028 16.4199C155.028 14.6035 155.387 13.2241 156.104 12.2817C156.827 11.3394 157.87 10.8682 159.232 10.8682C161.8 10.8682 163.084 12.6479 163.084 16.2075ZM160.008 16.2075C160.008 15.1626 159.935 14.3911 159.789 13.8931C159.642 13.395 159.405 13.146 159.078 13.146C158.438 13.146 158.119 14.2153 158.119 16.354C158.119 17.4038 158.192 18.1826 158.338 18.6904C158.49 19.1934 158.727 19.4448 159.049 19.4448C159.688 19.4448 160.008 18.3657 160.008 16.2075Z" fill="#2D3336"/>
</g>
</g>
</g>
</g>
</g>
<g id="top">
<path id="bg" d="M-375 -16H1545V31.687H-375V-16Z" fill="#0A2C3D"/>
<g id="top_info">
<g id="location">
<g id="Group 2017">
<g id="Group 2016">
<g id="Group 2015">
<path id="Path 20858" d="M6.02001 0C4.41346 0.0124226 2.87745 0.661663 1.74903 1.80527C0.620613 2.94887 -0.00804107 4.4934 0.00101197 6.09998C0.0367012 6.90599 0.209507 7.70005 0.51201 8.448C0.710328 8.90412 0.942649 9.34469 1.20701 9.76599L5.33501 16.1C5.40176 16.2236 5.50072 16.3269 5.6214 16.3989C5.74208 16.4709 5.87998 16.5089 6.02051 16.5089C6.16103 16.5089 6.29894 16.4709 6.41962 16.3989C6.5403 16.3269 6.63926 16.2236 6.70601 16.1L10.834 9.76498C11.0997 9.34361 11.3337 8.90307 11.534 8.44699C11.8356 7.69879 12.008 6.90487 12.044 6.099C12.0528 4.49174 11.4233 2.94669 10.2939 1.80316C9.1644 0.65963 7.62726 0.0111046 6.02001 0ZM10.877 8.16699C10.6956 8.58228 10.4833 8.98338 10.242 9.36697L6.11501 15.702C6.03401 15.827 6.00801 15.827 5.92601 15.702L1.79901 9.36697C1.55763 8.98359 1.34569 8.58245 1.16501 8.16699C0.899564 7.50731 0.745472 6.80814 0.709012 6.09799C0.699357 5.39434 0.829607 4.69579 1.0922 4.04291C1.3548 3.39002 1.7445 2.7958 2.23868 2.2948C2.73286 1.7938 3.32166 1.39598 3.97088 1.12445C4.6201 0.852922 5.31679 0.713104 6.02051 0.713104C6.72422 0.713104 7.42093 0.852922 8.07015 1.12445C8.71937 1.39598 9.30817 1.7938 9.80234 2.2948C10.2965 2.7958 10.6862 3.39002 10.9488 4.04291C11.2114 4.69579 11.3417 5.39434 11.332 6.09799C11.2948 6.80803 11.1417 7.50708 10.877 8.16699Z" fill="white"/>
<path id="Path 20859" d="M6.02002 2.8699C5.37962 2.86157 4.75121 3.04387 4.21468 3.39361C3.67816 3.74336 3.25776 4.24475 3.00694 4.83404C2.75612 5.42334 2.68621 6.07393 2.8061 6.70306C2.92599 7.3322 3.23027 7.91146 3.68023 8.36722C4.1302 8.82297 4.70553 9.13462 5.33309 9.26254C5.96064 9.39046 6.61205 9.3289 7.20451 9.08563C7.79696 8.84236 8.3037 8.4284 8.66028 7.89639C9.01685 7.36438 9.20717 6.73835 9.20702 6.0979C9.21155 5.24749 8.87854 4.43 8.28106 3.82483C7.68357 3.21966 6.87042 2.87625 6.02002 2.8699ZM6.02002 8.60889C5.52208 8.61523 5.0335 8.47338 4.61638 8.20135C4.19926 7.92933 3.87244 7.53941 3.67748 7.08118C3.48251 6.62295 3.42819 6.1171 3.52144 5.62793C3.61468 5.13875 3.85127 4.68836 4.20113 4.33398C4.55099 3.9796 4.99832 3.73723 5.48626 3.63772C5.9742 3.53821 6.48071 3.58604 6.94141 3.77511C7.4021 3.96419 7.79617 4.28599 8.07352 4.69958C8.35087 5.11318 8.49898 5.59992 8.49902 6.0979C8.50196 6.75922 8.24274 7.39477 7.77812 7.86539C7.31349 8.336 6.68133 8.60334 6.02002 8.60889Z" fill="white"/>
</g>
</g>
</g>
</g>
</g>
</g>
</g>
</g>
</g>
</g>
</g>
<defs>
<clipPath id="clip0_0_1">
<rect width="1920" height="9651" fill="white" transform="translate(-375 -16)"/>
</clipPath>
</defs>
</svg>
