<svg width="15" height="16" viewBox="0 0 15 16" fill="none" xmlns="http://www.w3.org/2000/svg">
<path fill-rule="evenodd" clip-rule="evenodd" d="M2.695 0.838379H6.487L6.32 1.06592L2.781 5.37439L2.581 5.30834V0.838379H2.695ZM11.09 10.3665L9.09 8.3051L8.82899 8.46656L8.429 8.07336C8.73261 7.63618 8.87621 7.09911 8.83363 6.56015C8.79104 6.02119 8.56509 5.51626 8.197 5.13743C7.77709 4.70987 7.21482 4.4707 6.6295 4.4707C6.04418 4.4707 5.4819 4.70987 5.062 5.13743C4.85603 5.34716 4.6923 5.59809 4.58049 5.87537C4.46868 6.15264 4.41107 6.45062 4.41107 6.75166C4.41107 7.05271 4.46868 7.35069 4.58049 7.62796C4.6923 7.90524 4.85603 8.15616 5.062 8.36589C5.43685 8.74744 5.92686 8.97997 6.44763 9.02341C6.9684 9.06686 7.48733 8.91852 7.915 8.60394L8.286 8.97196L8.13599 9.28129L10.136 11.3469C10.3979 11.3427 10.6484 11.2335 10.836 11.0418C10.9936 10.8561 11.0823 10.6172 11.086 10.3686L11.09 10.3665ZM7.837 7.99262C7.51422 8.32298 7.08105 8.50791 6.63 8.50791C6.17895 8.50791 5.74577 8.32298 5.423 7.99262C5.2647 7.83094 5.13889 7.63765 5.05299 7.42416C4.96708 7.21067 4.92282 6.9813 4.92282 6.74958C4.92282 6.51787 4.96708 6.28847 5.05299 6.07498C5.13889 5.86148 5.2647 5.6682 5.423 5.50651C5.74614 5.1769 6.17918 4.99248 6.63 4.99248C7.08082 4.99248 7.51385 5.1769 7.837 5.50651C7.99554 5.66805 8.12158 5.8613 8.20764 6.07482C8.2937 6.28833 8.33804 6.51778 8.33804 6.74958C8.33804 6.98138 8.2937 7.21081 8.20764 7.42432C8.12158 7.63783 7.99554 7.83109 7.837 7.99262ZM1.771 15.4143H6.18V11.3333H7.948V15.4132H12.386V9.29281H14.157L7.077 1.12778L0 9.29281H1.771V15.4143Z" fill="#FF5A3C"/>
</svg>
